<svg width="20" height="20" viewBox="0 0 20 20" xmlns="http://www.w3.org/2000/svg"><path d="M9.1232 7.10186667c.63786667 0 1.3813333.21333333 2.0192.64106666.2133333.10666667.4266667.21333334.6378667.42666667.2133333.2144.32 1.0688-.1066667 1.49653333-.4245333.42666667-1.0624.42666667-1.488 0-.63786667-.64106666-1.59466667-.64106666-2.23253333 0l-3.4016 3.41866667c-.63786667.6410667-.63786667 1.6032 0 2.2442667.63786666.64 1.59466666.64 2.23253333 0L8.80426667 13.2992c.10666666-.1066667.21333333-.1066667.31893333-.1066667.5312.2133334 1.1690667.32 1.7002667.32h.1066666c.1066667 0 .32.1066667.32.2133334 0 .1066666 0 .1066666-.1066666.2133333l-2.76480003 2.9930667C7.63413333 17.68 6.784 18 5.72053333 18 3.70133333 18 2 16.2901333 2 14.2602667c0-.9610667.4256-1.9232 1.06346667-2.6709334l3.4016-3.41866663c.74453333-.7488 1.59466666-1.0688 2.65813333-1.0688zm7.76-4.05973334c1.4890667 1.49546667 1.4890667 3.8464 0 5.2352L13.4816 11.696c-.4256.4266667-1.0634667.8544-1.7013333.9621333-.4213334.0533334-.8469334.0618667-1.2757334.0266667-.6421333-.0533333-.69546663.0042667-1.2757333-.2410667-.5792-.2453333-.74346667-.4266666-1.0624-.7466666-.32-.3210667-.32-.9621334.10666667-1.3898667.42453333-.42666667 1.0624-.42666667 1.488 0 .63786663.6410667 1.59466663.6410667 2.23253333 0l.8501333-.8544 2.4448-2.4576c.6378667-.64106667.6378667-1.6032 0-2.24426667-.6378666-.64-1.5946666-.64-2.2325333 0l-2.0192 1.81653334c0 .10666666-.1066667.10666666-.2133333.10666666-.5312-.21333333-1.06240003-.32-1.7002667-.32h-.10666667c-.10666666 0-.21333333-.10666666-.21333333-.21333333 0-.10666667 0-.21333333.10666667-.32106667l2.65813333-2.7776c1.488-1.38986666 3.8272-1.38986666 5.3152 0z" fill-rule="evenodd"/></svg>